<?xml version="1.0" encoding="UTF-8" standalone="no"?>
<!-- Created with Inkscape (http://www.inkscape.org/) -->
<svg
   xmlns:dc="http://purl.org/dc/elements/1.1/"
   xmlns:cc="http://creativecommons.org/ns#"
   xmlns:rdf="http://www.w3.org/1999/02/22-rdf-syntax-ns#"
   xmlns:svg="http://www.w3.org/2000/svg"
   xmlns="http://www.w3.org/2000/svg"
   xmlns:sodipodi="http://sodipodi.sourceforge.net/DTD/sodipodi-0.dtd"
   xmlns:inkscape="http://www.inkscape.org/namespaces/inkscape"
   width="28"
   height="34"
   id="svg15798"
   sodipodi:version="0.32"
   inkscape:version="0.46"
   version="1.0"
   sodipodi:docname="Ville de Montpellier.svg"
   inkscape:output_extension="org.inkscape.output.svg.inkscape">
  <defs
     id="defs15800">
    <inkscape:perspective
       sodipodi:type="inkscape:persp3d"
       inkscape:vp_x="0 : 526.18109 : 1"
       inkscape:vp_y="0 : 1000 : 0"
       inkscape:vp_z="744.09448 : 526.18109 : 1"
       inkscape:persp3d-origin="372.04724 : 350.78739 : 1"
       id="perspective15806" />
  </defs>
  <sodipodi:namedview
     id="base"
     pagecolor="#ffffff"
     bordercolor="#666666"
     borderopacity="1.0"
     inkscape:pageopacity="0.0"
     inkscape:pageshadow="2"
     inkscape:zoom="14.911765"
     inkscape:cx="14"
     inkscape:cy="17"
     inkscape:document-units="px"
     inkscape:current-layer="layer1"
     showgrid="false"
     inkscape:window-width="1024"
     inkscape:window-height="712"
     inkscape:window-x="-4"
     inkscape:window-y="-4" />
  <metadata
     id="metadata15803">
    <rdf:RDF>
      <cc:Work
         rdf:about="">
        <dc:format>image/svg+xml</dc:format>
        <dc:type
           rdf:resource="http://purl.org/dc/dcmitype/StillImage" />
      </cc:Work>
    </rdf:RDF>
  </metadata>
  <g
     inkscape:label="Calque 1"
     inkscape:groupmode="layer"
     id="layer1"
     transform="translate(-309.21527,-389.92602)">
    <path
       d="M 309.21527,423.36977 L 336.35027,423.36977 L 336.35027,417.47915 L 309.21527,417.47915 L 309.21527,423.36977 z"
       style="fill:#061620;fill-opacity:1;fill-rule:nonzero;stroke:none"
       id="path569" />
    <g
       id="g571"
       transform="matrix(1.25,0,0,-1.25,309.28652,389.92602)">
      <path
         d="M 0,0 L 21.706,0 L 21.706,-21.71 L -0.002,-21.71 L 0,0"
         style="fill:#ffffff;fill-opacity:1;fill-rule:nonzero;stroke:none"
         id="path573" />
    </g>
    <g
       id="g575"
       transform="matrix(1.2500576,0,0,-1.25,309.21527,405.84852)">
      <path
         d="M 0,0 L 0,-8.972 L 21.707,-8.972 L 21.707,0 L 16.249,0 L 16.622,-4.725 C 16.773,-6.036 16.622,-6.236 17,-6.236 L 17.849,-6.236 L 17.849,-6.833 L 13.192,-6.833 L 13.192,-6.236 C 13.999,-6.227 14.089,-6.236 14.089,-6.078 L 13.534,1.336 L 10.388,-6.473 C 10.314,-6.648 10.278,-6.804 10.12,-6.804 C 10.01,-6.804 9.963,-6.693 9.931,-6.614 L 6.814,0.597 L 6.31,-5.213 C 6.253,-6.007 6.179,-6.227 6.782,-6.236 L 7.315,-6.236 L 7.315,-6.833 L 4.388,-6.833 L 4.388,-6.236 L 4.954,-6.236 C 5.096,-6.236 5.285,-6.236 5.285,-6.078 L 5.749,0 L 0,0"
         style="fill:#11499f;fill-opacity:1;fill-rule:nonzero;stroke:none"
         id="path577" />
    </g>
    <g
       id="g579"
       transform="matrix(1.25,0,0,-1.25,309.21777,389.92602)">
      <path
         d="M 0,0 L 21.706,0 L 21.706,-12.508 L 16.247,-12.503 L 16.065,-10.159 C 16.097,-9.86 16.143,-9.86 16.364,-9.86 L 16.915,-9.86 L 16.915,-9.262 L 13.403,-9.262 L 10.84,-15.748 L 8.12,-9.262 L 4.454,-9.262 L 4.454,-9.86 C 5.348,-9.866 5.968,-9.764 5.881,-10.871 L 5.762,-12.503 L -0.002,-12.508 L 0,0"
         style="fill:#11499f;fill-opacity:1;fill-rule:nonzero;stroke:none"
         id="path581" />
    </g>
    <g
       id="g583"
       transform="matrix(1.25,0,0,-1.25,310.24777,418.32602)">
      <path
         d="M 0,0 L 1.26,0 L 1.549,-1.493 L 1.863,0 L 3.087,0 L 3.087,-0.532 L 2.846,-0.529 L 2.846,-2.081 L 3.087,-2.077 L 3.087,-2.61 L 2.066,-2.61 L 2.066,-2.077 L 2.244,-2.081 L 2.244,-0.558 L 1.741,-2.61 L 1.242,-2.61 L 0.761,-0.532 L 0.761,-2.081 L 0.924,-2.077 L 0.924,-2.61 L 0,-2.61 L 0,-2.077 L 0.236,-2.081 L 0.236,-0.529 L 0,-0.532 L 0,0"
         style="fill:#ffffff;fill-opacity:1;fill-rule:nonzero;stroke:none"
         id="path585" />
    </g>
    <g
       id="g587"
       transform="matrix(1.25,0,0,-1.25,315.53277,419.78602)">
      <path
         d="M 0,0 C -0.07,0 -0.122,-0.022 -0.166,-0.063 C -0.277,-0.177 -0.277,-0.37 -0.277,-0.481 C -0.277,-0.584 -0.274,-0.706 -0.222,-0.81 C -0.189,-0.876 -0.126,-0.957 0,-0.957 C 0.274,-0.957 0.274,-0.602 0.274,-0.473 C 0.274,-0.355 0.274,0 0,0 z M -0.529,0.396 C -0.351,0.492 -0.166,0.514 0,0.514 C 0.658,0.514 0.975,0.115 0.975,-0.492 C 0.975,-0.636 0.957,-0.78 0.913,-0.917 C 0.817,-1.198 0.658,-1.323 0.503,-1.394 C 0.347,-1.464 0.163,-1.49 0.003,-1.49 C -0.085,-1.49 -0.174,-1.482 -0.259,-1.468 C -0.414,-1.438 -0.565,-1.39 -0.702,-1.253 C -0.965,-0.994 -0.972,-0.636 -0.972,-0.466 C -0.972,-0.31 -0.972,0.163 -0.529,0.396"
         style="fill:#ffffff;fill-opacity:1;fill-rule:nonzero;stroke:none"
         id="path589" />
    </g>
    <g
       id="g591"
       transform="matrix(1.25,0,0,-1.25,319.40527,420.92352)">
      <path
         d="M 0,0 L 0.159,0 L 0.159,-0.532 L -0.687,-0.532 L -0.687,0.595 C -0.687,0.658 -0.692,0.702 -0.702,0.736 C -0.732,0.813 -0.806,0.835 -0.861,0.835 C -0.917,0.835 -0.965,0.813 -1.001,0.776 C -1.068,0.71 -1.072,0.625 -1.076,0.518 L -1.076,0 L -0.946,0 L -0.946,-0.532 L -1.915,-0.532 L -1.915,0 L -1.76,0 L -1.76,0.85 L -1.915,0.85 L -1.915,1.382 L -1.157,1.382 L -1.135,1.091 C -1.105,1.142 -1.079,1.19 -1.02,1.246 C -0.913,1.353 -0.75,1.434 -0.536,1.434 C -0.337,1.434 -0.203,1.36 -0.133,1.286 C -0.008,1.161 -0.003,1.005 0,0.872 L 0,0"
         style="fill:#ffffff;fill-opacity:1;fill-rule:nonzero;stroke:none"
         id="path593" />
    </g>
    <g
       id="g595"
       transform="matrix(1.25,0,0,-1.25,320.75027,418.44602)">
      <path
         d="M 0,0 L 0,-0.599 L 0.306,-0.599 L 0.306,-1.131 L 0,-1.131 L 0,-1.819 C 0.003,-1.889 0.011,-2.033 0.189,-2.033 C 0.229,-2.033 0.259,-2.025 0.288,-2.015 L 0.288,-2.502 C 0.163,-2.525 0.029,-2.551 -0.115,-2.551 C -0.329,-2.551 -0.492,-2.491 -0.573,-2.41 C -0.677,-2.307 -0.68,-2.17 -0.68,-2.063 L -0.68,-1.131 L -0.846,-1.131 L -0.846,-0.599 L -0.628,-0.599 L -0.628,-0.144 L 0,0"
         style="fill:#ffffff;fill-opacity:1;fill-rule:nonzero;stroke:none"
         id="path597" />
    </g>
    <g
       id="g599"
       transform="matrix(1.25,0,0,-1.25,322.49277,419.86477)">
      <path
         d="M 0,0 C -0.115,-0.107 -0.115,-0.318 -0.115,-0.377 C -0.115,-0.713 -0.045,-0.802 0,-0.847 C 0.029,-0.872 0.077,-0.906 0.144,-0.906 C 0.284,-0.906 0.406,-0.765 0.406,-0.433 C 0.406,-0.333 0.402,-0.225 0.37,-0.129 C 0.332,-0.023 0.259,0.059 0.144,0.059 C 0.1,0.059 0.044,0.044 0,0 z M -0.141,0.325 C -0.063,0.428 0.051,0.58 0.373,0.58 C 0.466,0.58 0.673,0.576 0.861,0.381 C 1.112,0.122 1.116,-0.277 1.116,-0.425 C 1.116,-0.596 1.116,-1.427 0.377,-1.427 C 0.306,-1.427 0.077,-1.427 -0.067,-1.216 C -0.081,-1.194 -0.093,-1.172 -0.107,-1.149 L -0.107,-1.608 L 0.062,-1.608 L 0.062,-2.137 L -0.95,-2.137 L -0.95,-1.608 L -0.799,-1.608 L -0.799,0.003 L -0.95,0.003 L -0.95,0.536 L -0.148,0.536 L -0.141,0.325"
         style="fill:#ffffff;fill-opacity:1;fill-rule:nonzero;stroke:none"
         id="path601" />
    </g>
    <g
       id="g603"
       transform="matrix(1.25,0,0,-1.25,325.61902,420.10102)">
      <path
         d="M 0,0 C 0,0.048 0,0.1 -0.018,0.151 C -0.055,0.255 -0.147,0.292 -0.233,0.292 C -0.454,0.292 -0.461,0.078 -0.461,0 L 0,0 z M 0.659,-0.532 C 0.633,-0.669 0.599,-0.85 0.429,-1.013 C 0.255,-1.175 0.015,-1.234 -0.225,-1.234 C -0.735,-1.234 -1.182,-0.987 -1.182,-0.24 C -1.182,-0.133 -1.175,0.004 -1.13,0.145 C -1.001,0.584 -0.643,0.769 -0.251,0.769 C 0.045,0.769 0.285,0.666 0.422,0.525 C 0.703,0.251 0.688,-0.192 0.684,-0.362 L -0.48,-0.362 C -0.48,-0.51 -0.477,-0.773 -0.236,-0.773 C -0.036,-0.773 -0.01,-0.602 0,-0.532 L 0.659,-0.532"
         style="fill:#ffffff;fill-opacity:1;fill-rule:nonzero;stroke:none"
         id="path605" />
    </g>
    <g
       id="g607"
       transform="matrix(1.25,0,0,-1.25,326.70527,418.32602)">
      <path
         d="M 0,0 L 0.843,0 L 0.843,-2.077 L 1.001,-2.077 L 1.001,-2.61 L 0,-2.61 L 0,-2.077 L 0.155,-2.077 L 0.155,-0.532 L 0,-0.532 L 0,0"
         style="fill:#ffffff;fill-opacity:1;fill-rule:nonzero;stroke:none"
         id="path609" />
    </g>
    <g
       id="g611"
       transform="matrix(1.25,0,0,-1.25,328.15152,418.32602)">
      <path
         d="M 0,0 L 0.843,0 L 0.843,-2.077 L 1.001,-2.077 L 1.001,-2.61 L 0,-2.61 L 0,-2.077 L 0.155,-2.077 L 0.155,-0.532 L 0,-0.532 L 0,0"
         style="fill:#ffffff;fill-opacity:1;fill-rule:nonzero;stroke:none"
         id="path613" />
    </g>
    <g
       id="g615"
       transform="matrix(1.25,0,0,-1.25,329.73652,418.94102)">
      <path
         d="M 0.746,0 L -0.00011,0 L -0.00011,0.49512 L 0.746,0.49512 L 0.746,0 z M 0.746,-0.203 L 0.746,-1.586 L 0.909,-1.586 L 0.909,-2.118 L -0.1,-2.118 L -0.1,-1.586 L 0.059,-1.586 L 0.059,-0.736 L -0.1,-0.736 L -0.1,-0.203 L 0.746,-0.203"
         style="fill:#ffffff;fill-opacity:1;fill-rule:nonzero;stroke:none"
         id="path617" />
    </g>
    <g
       id="g619"
       transform="matrix(1.25,0,0,-1.25,332.55402,420.10102)">
      <path
         d="M 0,0 C 0,0.048 0,0.1 -0.018,0.151 C -0.055,0.255 -0.147,0.292 -0.233,0.292 C -0.454,0.292 -0.461,0.078 -0.461,0 L 0,0 z M 0.659,-0.532 C 0.633,-0.669 0.599,-0.85 0.429,-1.013 C 0.255,-1.175 0.015,-1.234 -0.225,-1.234 C -0.735,-1.234 -1.182,-0.987 -1.182,-0.24 C -1.182,-0.133 -1.175,0.004 -1.13,0.145 C -1.001,0.584 -0.643,0.769 -0.251,0.769 C 0.045,0.769 0.285,0.666 0.422,0.525 C 0.703,0.251 0.688,-0.192 0.684,-0.362 L -0.48,-0.362 C -0.48,-0.51 -0.477,-0.773 -0.236,-0.773 C -0.036,-0.773 -0.01,-0.602 0,-0.532 L 0.659,-0.532"
         style="fill:#ffffff;fill-opacity:1;fill-rule:nonzero;stroke:none"
         id="path621" />
    </g>
    <g
       id="g623"
       transform="matrix(1.25,0,0,-1.25,334.61152,419.61102)">
      <path
         d="M 0,0 C 0.029,0.103 0.1,0.355 0.466,0.355 C 0.543,0.355 0.588,0.347 0.647,0.332 L 0.647,-0.281 C 0.595,-0.27 0.55,-0.263 0.484,-0.263 C 0.344,-0.263 0.229,-0.307 0.158,-0.374 C 0.07,-0.462 0.067,-0.562 0.067,-0.739 L 0.059,-1.05 L 0.285,-1.05 L 0.285,-1.582 L -0.765,-1.582 L -0.765,-1.05 L -0.607,-1.05 L -0.607,-0.2 L -0.765,-0.2 L -0.765,0.332 L -0.023,0.332 L 0,0"
         style="fill:#ffffff;fill-opacity:1;fill-rule:nonzero;stroke:none"
         id="path625" />
    </g>
  </g>
</svg>
